<?xml version="1.0" encoding="utf-8"?>
<svg width="2300" height="1100" viewBox="45.329 58.496 103.177 49.645" xmlns="http://www.w3.org/2000/svg">
  <defs />
  <g fill-rule="evenodd" clip-rule="evenodd" style="" transform="matrix(0.578946, 0, 0, 0.578946, 31.514418, 9.9292)">
    <path fill="#fff"
      d="M 117.678 139.579 L 117.678 123.487 L 98.972 116.229 L 108.793 106.689 L 95.919 95.269 L 92.266 102.258 L 92.408 95.545 L 76.102 100.749 L 76.517 109.513 L 79.292 108.79 L 82.166 139.7 L 93.664 138.011 L 93.649 127.694 L 117.678 139.579 L 117.678 139.579 Z" />
    <path
      d="M 79.171 102.999 L 89.081 100.049 L 89.685 110.265 L 96.984 100.011 L 104.117 106.802 L 94.147 117.315 L 114.673 125.438 L 114.673 134.789 L 90.826 122.863 L 90.868 135.357 L 84.7 136.201 L 82.067 104.929 L 79.292 105.653 L 79.171 102.999 L 79.171 102.999 Z" />
    <path fill="#fff"
      d="M 154.309 96.813 L 143.507 96.813 L 143.204 98.587 L 131.839 98.587 L 126.53 131.053 L 139.485 133.096 L 140.202 128.428 L 143.587 134.683 L 145.651 130.697 L 146.405 137.239 L 161.098 139.831 L 154.309 96.813 L 154.309 96.813 Z" />
    <path
      d="M 146.348 99.808 L 151.846 99.808 L 157.415 135.977 L 149.298 134.738 L 147.141 120.431 L 144.089 128.325 L 139.512 118.462 L 139.464 118.462 L 137.653 129.887 L 130.034 128.562 L 134.571 101.482 L 142.268 101.482 L 144.186 111.987 L 146.348 99.808 L 146.348 99.808 Z" />
    <path fill="#fff"
      d="M 168.063 99.767 L 184.307 103.341 L 185.52 109.339 L 186.833 103.928 L 200.657 107.282 L 187.378 147.29 L 177.19 144.084 L 177.11 140.075 L 167.333 138.707 L 170.63 109.341 L 168.182 108.796 L 168.063 99.767 L 168.063 99.767 Z" />
    <path
      d="M 170.946 103.527 L 181.542 105.656 L 185.104 122.553 L 188.755 107.406 L 196.817 109.19 L 185.466 143.57 L 179.829 141.885 L 179.337 121.106 L 176.501 137.136 L 170.348 136.158 L 173.108 107.054 L 170.788 106.434 L 170.946 103.527 L 170.946 103.527 Z" />
    <path
      d="M 166.495 134.077 C 162.985 135.399 159.253 135.244 156.255 133.651 C 153.48 132.175 151.538 129.629 150.788 126.479 C 149.29 120.196 153.44 113.029 160.042 110.503 C 163.587 109.168 167.349 109.327 170.376 110.934 C 173.126 112.394 175.042 114.883 175.772 117.943 C 177.301 124.316 173.143 131.554 166.495 134.077 L 166.495 134.077 Z"
      fill="#fff" />
    <path
      d="M 173.204 118.52 C 171.999 113.475 166.628 110.953 161.108 113.033 C 155.758 115.081 152.251 120.869 153.454 125.915 C 154.692 131.119 160.022 133.639 165.542 131.56 C 170.934 129.513 174.444 123.682 173.204 118.52 Z" />
    <path
      d="M 169.194 119.413 C 169.081 122.193 166.663 124.288 163.706 124.168 C 160.796 124.05 158.556 121.765 158.669 118.986 C 158.774 116.375 161.192 114.279 164.148 114.399 C 167.059 114.517 169.3 116.802 169.194 119.413 L 169.194 119.413 Z"
      fill="#fff" />
    <path
      d="M 165.432 114.523 C 163.662 114.451 162.176 115.669 162.114 117.244 C 162.05 118.818 163.432 120.153 165.2 120.224 C 166.97 120.296 168.456 119.078 168.518 117.504 C 168.583 115.929 167.2 114.595 165.432 114.523 L 165.432 114.523 Z" />
    <path
      d="M 76.905 137.584 C 73.311 139.107 69.422 139.104 66.236 137.572 C 63.286 136.156 61.159 133.589 60.246 130.343 C 58.423 123.871 62.438 116.242 69.197 113.336 C 72.828 111.797 76.746 111.804 79.964 113.347 C 82.885 114.749 84.984 117.258 85.873 120.409 C 87.733 126.974 83.714 134.679 76.905 137.584 L 76.905 137.584 Z"
      fill="#fff" />
    <path
      d="M 83.301 120.807 C 81.822 115.566 76.08 113.149 70.377 115.566 C 64.852 117.941 61.418 124.164 62.895 129.406 C 64.417 134.812 70.115 137.23 75.818 134.812 C 81.388 132.437 84.822 126.17 83.301 120.807 L 83.301 120.807 Z" />
    <path
      d="M 79.441 121.81 C 79.441 124.592 77.11 126.784 74.152 126.784 C 71.238 126.784 68.908 124.592 68.908 121.81 C 68.908 119.197 71.238 117.004 74.197 117.004 C 77.11 117.005 79.441 119.197 79.441 121.81 Z"
      fill="#fff" />
    <path
      d="M 75.485 117.077 C 73.714 117.077 72.279 118.354 72.279 119.93 C 72.279 121.506 73.714 122.783 75.485 122.783 C 77.255 122.783 78.69 121.506 78.69 119.93 C 78.69 118.354 77.255 117.077 75.485 117.077 Z" />
    <path fill="#fff"
      d="M 57.098 127.926 C 64.817 122.252 68.495 113.685 65.707 107.253 C 64.487 104.46 62.386 102.144 59.726 100.659 C 57.886 99.434 55.691 98.668 53.392 98.41 C 47.756 97.421 40.982 98.437 34.317 101.271 C 31.957 102.265 29.682 103.451 27.516 104.817 L 24.909 106.475 L 26.483 109.134 L 31.364 117.382 C 31.364 117.382 32.864 119.917 32.871 119.913 L 35.517 118.62 L 35.885 118.44 L 48.016 145.53 L 49.183 148.134 L 51.9 147.265 L 58.469 145.164 L 61.346 144.245 L 60.585 141.321 L 57.098 127.926 L 57.098 127.926 Z" />
    <path
      d="M 62.78 108.522 C 61.813 106.292 60.145 104.543 57.959 103.315 C 56.374 102.26 54.554 101.75 52.841 101.553 C 47.983 100.701 41.926 101.503 35.566 104.208 C 33.301 105.171 31.176 106.272 29.229 107.511 L 34.11 115.759 C 35.36 115.144 36.713 114.498 37.443 114.113 L 50.929 144.227 L 57.499 142.127 L 53.444 126.551 C 61.204 121.759 65.127 113.936 62.78 108.522 L 62.78 108.522 Z" />
    <path
      d="M 131.786 116.442 L 127.167 112.284 L 129.433 109.871 L 131.474 107.697 L 129.593 105.382 C 125.923 100.865 120.054 99.053 113.898 100.538 C 105.332 102.602 100.499 109.976 102.405 118.071 C 103.171 121.327 105.217 124.118 108.164 125.932 C 111.685 128.099 116.109 128.692 120.621 127.604 C 125.385 126.457 128.879 124.529 131.955 121.355 L 134.42 118.812 L 131.786 116.442 L 131.786 116.442 Z"
      fill="#fff" />
    <path
      d="M 124.688 114.47 C 123.53 115.843 122.202 117.094 119.834 117.665 C 119.045 117.855 117.975 118.032 117.299 117.912 L 127.227 107.338 C 124.42 103.886 119.829 102.292 114.612 103.549 C 108.128 105.112 103.754 110.505 105.373 117.384 C 106.676 122.919 112.792 126.302 119.89 124.592 C 124.189 123.556 127.179 121.896 129.863 119.127 L 124.688 114.47 Z" />
    <path fill="#fff" d="M 109.179 98.814 L 121.343 84.802 L 128.071 94.849 L 112.699 103.108 L 109.179 98.814 Z" />
    <path d="M 120.823 89.266 L 124.382 94.099 L 114.208 99.141 L 113.505 98.076 L 120.823 89.266 L 120.823 89.266 Z" />
    <path fill="#fff"
      d="M 113.28 114.633 C 111.92 112.165 113.741 109.151 116.557 109.206 C 116.982 109.215 117.402 109.297 117.799 109.45 L 113.28 114.633 Z M 113.778 110.401 C 112.723 111.559 112.523 113.26 113.279 114.632 L 117.797 109.449 C 116.389 108.908 114.793 109.286 113.778 110.401 Z M 120.305 108.672 C 117.075 105.732 111.874 107.391 110.943 111.657 C 110.511 113.638 111.168 115.698 112.667 117.063 C 112.86 117.238 113.064 117.392 113.272 117.536 L 120.705 109.077 C 120.579 108.934 120.445 108.799 120.305 108.672 Z M 113.28 114.633 C 111.92 112.165 113.741 109.151 116.557 109.206 C 116.982 109.215 117.402 109.297 117.799 109.45 L 113.28 114.633 Z M 57.67 113.674 C 57.093 110.482 52.938 108.695 48.784 110.922 L 49.827 114.578 L 51.471 119.982 L 52.221 122.447 C 55.333 120.469 58.47 118.094 57.67 113.674 L 57.67 113.674 Z M 53.536 118.549 L 52.117 113.882 L 51.695 112.403 C 52.576 112.247 53.419 112.326 54.112 112.661 C 54.498 112.847 55.168 113.282 55.315 114.099 C 55.648 115.934 55.015 117.24 53.536 118.549 L 53.536 118.549 Z M 54.918 162.055 C 54.452 162.4 54.015 162.695 53.634 162.927 C 53.813 161.96 54.108 161.015 54.465 160.129 C 54.455 160.188 54.445 160.246 54.439 160.304 C 54.385 160.926 54.555 161.547 54.918 162.055 L 54.918 162.055 Z M 63.642 155.757 C 63.17 155.326 62.528 155.133 61.897 155.231 C 61.801 155.246 61.707 155.269 61.615 155.299 C 61.274 155.41 60.678 155.695 58.942 156.549 L 58.232 156.899 C 57.742 157.136 57.041 157.467 56.682 157.555 L 56.618 157.573 C 56.022 157.743 55.529 158.129 55.162 158.599 C 55.804 157.334 56.555 156.129 57.407 154.996 C 57.671 154.977 57.932 154.926 58.184 154.845 C 59.248 154.483 59.712 153.451 59.791 152.607 L 59.796 152.54 C 59.803 152.345 59.796 152.149 59.775 151.956 C 59.766 151.841 59.754 151.709 59.748 151.573 C 59.745 151.517 59.74 151.462 59.732 151.407 L 59.713 151.264 C 59.668 150.923 59.613 150.541 59.475 150.164 C 59.26 149.545 58.836 149.057 58.273 148.79 C 57.679 148.509 56.979 148.495 56.303 148.753 C 56.286 148.759 56.269 148.765 56.253 148.773 C 55.386 149.132 54.289 150.142 53.697 150.91 C 51.762 153.503 48.01 159.531 47.541 163.96 C 47.538 163.991 47.536 164.022 47.534 164.054 C 47.412 166.276 48.222 167.443 48.922 168.031 C 49.587 168.588 50.785 169.158 52.719 168.706 L 52.804 168.684 C 54.685 168.148 56.672 167.038 58.739 165.377 C 59.154 166.227 60.094 166.998 61.592 166.683 L 61.66 166.667 C 62.645 166.42 63.72 165.521 63.869 164.281 C 63.874 164.239 63.877 164.197 63.88 164.156 C 63.896 163.828 63.857 163.519 63.816 163.194 C 63.774 162.862 63.73 162.519 63.752 162.182 C 63.807 161.488 63.947 160.496 64.142 159.424 L 64.238 158.896 C 64.343 158.328 64.374 158.156 64.411 157.688 L 64.415 157.625 C 64.45 156.917 64.167 156.232 63.642 155.757 L 63.642 155.757 Z M 59.447 150.085 C 59.458 150.111 59.465 150.138 59.474 150.164 L 59.487 150.193 C 59.475 150.156 59.462 150.12 59.447 150.085 L 59.447 150.085 Z" />
    <path fill="#fff"
      d="M 71.455 152.927 C 70.479 152.054 69.167 151.623 68.029 151.799 C 67.611 151.725 67.182 151.732 66.767 151.82 L 66.69 151.837 C 65.525 152.124 65.084 152.927 64.913 153.246 C 63.181 155.133 61.819 158.067 61.592 160.422 L 61.586 160.499 C 61.484 162.389 61.939 163.795 62.936 164.679 C 63.883 165.519 65.211 165.795 66.881 165.502 L 66.979 165.481 C 69.698 164.85 72.827 162.271 73.27 158.1 C 73.273 158.065 73.277 158.028 73.278 157.992 C 73.404 155.266 72.356 153.733 71.455 152.927 L 71.455 152.927 Z" />
    <path fill="#fff"
      d="M 78.065 151.052 C 77.885 150.894 77.683 150.764 77.465 150.667 L 77.471 150.249 C 77.476 149.816 77.483 149.369 77.493 149.193 C 77.535 148.269 77.2 147.451 76.576 146.914 C 75.944 146.37 75.094 146.168 74.182 146.346 C 74.146 146.353 74.11 146.361 74.075 146.37 C 72.677 146.73 71.675 147.957 71.522 149.497 C 71.463 150.209 71.494 150.84 71.523 151.451 C 71.534 151.675 71.543 151.895 71.549 152.117 C 70.654 152.566 70.067 153.471 69.96 154.626 C 69.902 155.375 70.193 156.109 70.747 156.617 C 70.963 156.811 71.212 156.958 71.478 157.059 C 71.463 157.591 71.439 158.123 71.408 158.655 C 71.345 159.544 71.276 161.615 71.285 162.098 C 71.313 162.788 71.652 163.428 72.208 163.84 C 72.639 164.161 73.415 164.506 74.664 164.319 C 74.692 164.314 74.719 164.31 74.747 164.305 C 76.041 164.05 77.126 162.951 77.271 161.751 C 77.275 161.715 77.279 161.68 77.281 161.645 C 77.309 161.198 77.363 158.76 77.372 158.119 L 77.371 158.014 C 77.355 157.654 77.378 156.595 77.404 155.74 L 77.438 155.724 C 78.301 155.261 78.884 154.297 78.938 153.261 C 78.939 153.238 78.94 153.215 78.94 153.193 C 78.955 152.322 78.644 151.561 78.065 151.052 L 78.065 151.052 Z" />
    <path fill="#fff"
      d="M 83.978 150.089 C 83.798 149.927 83.596 149.794 83.377 149.693 L 83.386 149.172 C 83.394 148.688 83.402 148.23 83.414 148.039 C 83.457 147.092 83.122 146.252 82.498 145.699 C 81.88 145.153 81.049 144.934 80.157 145.085 C 80.119 145.091 80.081 145.099 80.043 145.107 C 78.623 145.439 77.603 146.688 77.446 148.29 C 77.386 149.027 77.414 149.687 77.441 150.326 C 77.451 150.567 77.461 150.813 77.466 151.063 C 76.567 151.509 75.979 152.419 75.871 153.595 L 75.865 153.694 C 75.84 154.41 76.125 155.101 76.648 155.592 C 76.865 155.792 77.116 155.944 77.385 156.049 C 77.368 156.612 77.344 157.174 77.311 157.737 C 77.247 158.639 77.178 160.709 77.189 161.179 C 77.191 161.25 77.196 161.322 77.207 161.392 C 77.375 162.59 78.466 163.682 80.524 163.422 L 80.608 163.409 C 81.922 163.181 83.024 162.095 83.171 160.883 L 83.181 160.777 C 83.208 160.341 83.262 157.899 83.272 157.251 L 83.271 157.146 C 83.256 156.78 83.28 155.693 83.308 154.817 L 83.326 154.808 C 84.2 154.349 84.787 153.377 84.844 152.325 L 84.846 152.26 C 84.86 151.379 84.552 150.608 83.978 150.089 L 83.978 150.089 Z" />
    <path fill="#fff"
      d="M 92.092 153.194 C 91.328 148.575 89.216 147.84 87.58 148.043 C 87.543 148.047 87.506 148.052 87.469 148.06 C 86.078 148.32 83.645 150.018 82.956 150.656 C 82.929 150.68 82.903 150.707 82.877 150.733 C 82.333 151.286 82.008 152.018 81.962 152.793 C 81.932 153.606 82.229 154.353 82.8 154.893 C 82.985 155.069 83.196 155.212 83.421 155.328 C 82.341 156.4 81.126 157.914 80.967 159.766 C 80.963 159.81 80.961 159.854 80.96 159.899 C 80.949 160.69 81.24 161.394 81.778 161.881 C 82.639 162.66 83.807 162.629 84.611 162.538 L 84.658 162.532 C 85.55 162.397 86.415 162.125 87.225 161.728 C 87.719 161.993 88.32 162.094 89.021 162.026 L 89.072 162.02 C 89.496 161.967 90.925 161.706 91.499 160.572 C 91.514 160.543 91.528 160.512 91.541 160.482 C 92.082 159.254 92.22 157.67 92.234 157.493 C 92.267 157.063 92.405 154.892 92.092 153.194 L 92.092 153.194 Z M 86.258 157.696 L 86.26 157.695 L 86.26 157.722 C 86.259 157.713 86.258 157.704 86.258 157.696 Z M 86.275 157.962 L 86.282 158.006 L 86.275 157.962 Z M 105.106 154.699 C 104.575 154.17 103.822 153.892 102.985 153.919 C 102.937 153.92 102.889 153.924 102.841 153.93 C 102.145 154.006 101.591 154.347 101.154 154.703 C 101.505 153.93 101.949 153.301 102.305 153.172 C 103.163 152.886 104.223 152.111 104.396 150.045 L 104.4 149.992 C 104.455 149.007 104.196 148.222 103.633 147.66 C 103.268 147.296 102.613 146.875 101.564 146.934 C 101.464 146.939 101.364 146.954 101.267 146.975 C 99.568 147.355 95.173 151.862 94.628 156.804 L 94.62 156.898 C 94.547 158.141 94.868 159.136 95.572 159.855 C 96.359 160.656 97.492 161.016 99.038 160.955 C 99.079 160.953 99.12 160.951 99.161 160.946 C 100.765 160.775 105.315 159.456 105.787 156.721 C 105.801 156.636 105.81 156.55 105.813 156.464 C 105.833 155.802 105.577 155.163 105.106 154.699 L 105.106 154.699 Z" />
    <path fill="#fff"
      d="M 113.659 151.756 C 113.08 147.948 111.631 146.032 109.355 146.091 C 109.313 146.091 109.271 146.094 109.23 146.099 C 107.792 146.234 105.291 147.864 104.586 148.499 C 103.98 149.066 103.617 149.846 103.573 150.675 C 103.541 151.492 103.825 152.255 104.373 152.823 C 104.598 153.055 104.858 153.241 105.137 153.381 C 104.024 154.413 102.729 155.914 102.563 157.836 C 102.559 157.88 102.557 157.925 102.556 157.97 C 102.544 158.946 102.965 159.567 103.321 159.915 C 104.129 160.709 105.265 160.768 106.049 160.743 L 106.098 160.741 C 106.978 160.681 107.843 160.482 108.661 160.15 C 109.136 160.453 109.729 160.6 110.431 160.59 L 110.487 160.588 C 110.93 160.568 112.426 160.412 113.044 159.232 C 113.06 159.203 113.074 159.172 113.088 159.142 C 113.62 157.975 113.764 156.453 113.79 156.159 C 113.819 155.724 113.96 153.535 113.659 151.756 L 113.659 151.756 Z M 109.633 154.365 C 109.597 154.368 109.561 154.37 109.526 154.375 L 109.537 154.365 C 109.568 154.363 109.601 154.365 109.633 154.365 Z M 107.824 156.093 Z M 107.836 156.416 Z" />
    <path fill="#fff"
      d="M 118.401 146.896 C 118.411 146.556 118.419 146.223 118.426 145.915 C 118.44 145.345 118.453 144.806 118.467 144.569 C 118.516 143.592 118.211 142.689 117.629 142.065 C 117.066 141.464 116.27 141.137 115.447 141.169 C 113.881 141.255 112.707 142.571 112.528 144.445 C 112.461 145.273 112.481 146.042 112.499 146.785 C 112.506 147.081 112.513 147.382 112.515 147.688 C 111.745 148.046 111.042 148.846 110.913 150.275 L 110.907 150.365 C 110.878 151.077 111.137 151.78 111.618 152.293 C 111.846 152.535 112.114 152.723 112.407 152.852 C 112.377 153.642 112.343 154.524 112.313 154.954 C 112.246 155.897 112.177 157.954 112.188 158.433 C 112.19 158.504 112.195 158.575 112.206 158.644 C 112.346 159.652 113.233 160.833 115.269 160.848 L 115.357 160.846 C 116.761 160.789 117.988 159.735 118.146 158.447 C 118.152 158.41 118.154 158.373 118.158 158.336 C 118.201 157.109 118.232 155.883 118.252 154.656 C 118.238 154.272 118.268 153.12 118.299 152.182 C 119.178 151.748 119.77 150.797 119.832 149.698 L 119.836 149.628 C 119.86 148.38 119.294 147.365 118.401 146.896 L 118.401 146.896 Z" />
    <path fill="#fff"
      d="M 124.155 153.582 C 124.105 153.578 124.055 153.578 124.005 153.58 C 123.165 153.608 122.509 154.035 122.034 154.423 C 122.389 153.526 122.893 152.791 123.251 152.692 C 123.236 152.697 123.221 152.701 123.206 152.705 C 123.954 152.517 125.237 151.861 125.429 149.587 L 125.431 149.535 C 125.486 148.577 125.247 147.799 124.724 147.223 C 124.39 146.855 123.783 146.407 122.783 146.366 C 122.678 146.362 122.573 146.367 122.469 146.381 C 120.508 146.638 116.221 151.134 115.69 155.958 C 115.686 155.989 115.683 156.02 115.682 156.052 C 115.657 156.507 115.575 157.893 116.586 159.009 C 117.324 159.823 118.453 160.267 119.94 160.325 C 119.981 160.327 120.024 160.327 120.065 160.326 C 121.696 160.279 126.321 159.276 126.805 156.464 C 126.819 156.379 126.828 156.294 126.83 156.208 C 126.872 154.786 125.721 153.658 124.155 153.582 L 124.155 153.582 Z" />
    <path fill="#fff"
      d="M 131.723 146.572 C 131.664 146.565 131.606 146.561 131.547 146.56 C 130.886 146.545 130.229 146.664 129.615 146.91 C 129.625 146.598 129.636 146.295 129.656 146.014 C 129.769 144.544 129.883 143.544 129.974 142.74 C 130.027 142.275 130.074 141.873 130.103 141.511 L 130.105 141.462 C 130.212 139.488 129.142 137.991 127.501 137.82 C 127.459 137.816 127.418 137.813 127.376 137.811 C 124.038 137.691 123.722 141.437 123.603 142.846 C 123.449 145.175 123.521 148.177 123.58 150.589 C 123.605 151.732 123.631 152.719 123.625 153.408 L 123.625 153.476 C 123.627 153.519 123.811 157.982 124.094 159.03 C 124.125 159.148 124.168 159.261 124.223 159.37 C 124.854 160.637 125.928 160.785 126.973 160.83 C 127.018 160.831 127.063 160.832 127.108 160.83 C 127.993 160.803 128.743 160.405 129.208 159.782 C 129.63 160.268 130.269 160.637 131.159 160.752 C 131.218 160.76 131.278 160.765 131.337 160.767 C 133.173 160.824 134.462 159.776 134.622 158.098 C 134.659 157.763 134.757 157.129 134.852 156.516 C 134.971 155.745 135.084 155.015 135.123 154.575 C 135.53 148.342 133.497 146.787 131.723 146.572 L 131.723 146.572 Z M 142.294 140.594 C 142.201 140.575 142.106 140.564 142.011 140.56 C 140.361 140.488 139.697 142.051 139.163 143.307 C 139.023 143.643 138.876 143.975 138.72 144.304 C 138.681 144.374 138.616 144.484 138.55 144.594 C 138.081 145.384 137.687 146.102 137.595 146.887 C 137.589 146.934 137.585 146.981 137.583 147.029 C 137.524 148.518 138.575 149.744 140.083 149.944 C 140.151 149.952 140.22 149.958 140.29 149.959 C 141.829 149.987 143.306 148.209 143.7 147.584 C 143.727 147.541 143.751 147.498 143.774 147.454 C 144.272 146.504 144.862 145.035 144.95 144.315 C 144.958 144.256 144.962 144.197 144.964 144.136 C 144.993 142.914 144.059 140.949 142.294 140.594 L 142.294 140.594 Z" />
    <path fill="#fff"
      d="M 147.546 154.08 C 147.753 153.525 147.792 153.002 147.819 152.631 L 147.825 152.559 C 147.829 152.518 147.829 152.476 147.831 152.435 C 147.843 150.569 145.847 147.668 142.565 147.185 C 142.456 147.168 142.346 147.162 142.237 147.166 C 139.989 147.24 138.735 150.959 138.397 153.58 C 137.887 153.984 137.504 154.583 137.418 155.571 C 137.373 156.352 137.673 157.114 138.24 157.655 C 138.511 159.554 139.572 161.342 141.621 161.643 C 141.709 161.656 141.795 161.663 141.883 161.663 C 142.647 161.666 143.514 161.299 145.453 160.154 L 145.586 160.075 C 146.795 159.377 148.633 158.314 148.879 156.642 C 148.889 156.586 148.893 156.53 148.897 156.473 C 148.954 155.399 148.434 154.521 147.546 154.08 L 147.546 154.08 Z M 139.581 154.562 C 139.55 154.57 139.517 154.575 139.483 154.584 C 139.515 154.575 139.548 154.568 139.581 154.562 Z" />
    <path fill="#fff"
      d="M 161.524 154.822 C 161.504 152.782 160.723 150.24 158.583 149.711 C 158.531 149.699 158.479 149.689 158.427 149.68 C 157.411 149.522 156.322 149.684 155.355 150.094 C 154.789 149.55 154.069 149.194 153.293 149.076 C 152.4 148.973 151.57 149.217 150.838 149.653 C 150.438 149.312 149.899 149.061 149.174 148.954 C 149.129 148.947 149.084 148.943 149.039 148.939 C 147.697 148.839 146.041 150.023 145.836 151.756 C 145.83 151.792 145.827 151.829 145.826 151.866 C 145.791 152.448 145.84 153.092 145.894 153.837 C 145.955 154.649 146.023 155.57 146.019 156.725 C 146.027 157.236 146.078 159.661 146.302 160.602 C 146.325 160.706 146.361 160.808 146.404 160.907 C 146.793 161.806 147.728 162.418 148.972 162.587 C 148.999 162.591 149.025 162.594 149.052 162.596 C 149.82 162.666 150.652 162.482 151.277 162.038 C 151.677 162.463 152.306 162.815 153.295 162.966 C 153.326 162.971 153.357 162.975 153.391 162.978 C 154.348 163.073 155.141 162.867 155.748 162.366 C 155.768 162.35 155.789 162.33 155.809 162.313 C 156.248 162.883 156.938 163.271 157.848 163.434 L 157.924 163.447 C 158.91 163.581 159.738 163.391 160.383 162.882 C 160.797 162.554 161.313 161.943 161.414 160.897 C 161.416 160.877 161.417 160.857 161.418 160.837 C 161.441 160.493 161.436 160.096 161.432 159.634 C 161.426 159.197 161.42 158.702 161.442 158.261 C 161.487 157.269 161.52 155.703 161.524 154.822 Z M 173.038 157.362 C 172.474 154.101 171.253 152.346 169.202 151.867 C 169.169 151.858 169.137 151.852 169.104 151.847 C 167.801 151.615 165.354 152.243 164.405 152.765 C 163.603 153.219 163.094 154.057 163.061 154.979 C 163.02 156.14 163.682 157.11 164.512 157.632 C 163.578 158.323 162.264 159.597 162.09 161.608 C 162.086 161.65 162.084 161.694 162.084 161.737 C 162.068 162.693 162.441 164.379 165.115 164.926 L 165.164 164.936 C 166.016 165.087 166.89 165.074 167.738 164.9 C 168.154 165.327 168.724 165.643 169.414 165.798 C 169.434 165.803 169.451 165.807 169.471 165.81 C 170.465 166.002 171.838 165.825 172.438 164.692 C 172.456 164.658 172.473 164.624 172.489 164.588 C 173.028 163.396 173.175 161.776 173.188 161.595 C 173.233 161.001 173.346 158.985 173.038 157.362 L 173.038 157.362 Z M 168.688 159.323 C 168.858 159.285 169.032 159.269 169.206 159.28 C 169.032 159.277 168.859 159.291 168.688 159.323 Z M 167.266 161.067 Z" />
    <path fill="#fff"
      d="M 177.223 162.708 C 177.114 161.813 176.977 160.7 176.975 159.833 C 176.981 159.227 176.918 158.155 176.846 156.916 C 176.772 155.656 176.682 154.094 176.707 153.527 C 176.766 152.803 176.85 152.165 176.916 151.651 C 176.978 151.171 177.029 150.791 177.045 150.461 C 177.047 150.422 177.047 150.384 177.047 150.345 C 177.026 148.897 175.836 147.851 174.666 147.456 C 174.642 147.447 174.617 147.44 174.592 147.434 C 173.418 147.092 172.596 147.413 172.113 147.744 C 171.011 148.497 170.769 149.868 170.683 150.834 L 170.679 150.882 C 170.566 152.692 170.714 154.762 170.845 156.588 C 170.919 157.625 170.99 158.605 170.99 159.304 C 170.984 160.625 171.052 161.959 171.101 162.933 C 171.124 163.421 171.146 163.842 171.146 164.042 C 171.146 164.075 171.148 164.108 171.15 164.142 C 171.183 164.771 171.519 166.298 173.91 166.897 L 173.967 166.91 C 175.113 167.16 175.881 166.831 176.322 166.511 C 176.914 166.083 177.285 165.41 177.367 164.616 C 177.371 164.576 177.375 164.535 177.377 164.495 C 177.391 164.094 177.335 163.607 177.223 162.708 L 177.223 162.708 Z" />
    <path fill="#fff"
      d="M 181.343 163.679 C 181.236 162.781 181.101 161.66 181.099 160.805 C 181.103 160.188 181.035 159.058 180.962 157.862 C 180.888 156.664 180.798 155.177 180.819 154.649 C 180.876 153.966 180.954 153.37 181.018 152.889 C 181.08 152.43 181.129 152.068 181.143 151.745 C 181.145 151.706 181.145 151.667 181.145 151.628 C 181.118 150.234 179.942 149.2 178.788 148.792 C 178.765 148.783 178.741 148.776 178.718 148.769 C 177.519 148.4 176.685 148.714 176.197 149.042 C 175.109 149.772 174.875 151.081 174.793 152.003 L 174.789 152.05 C 174.682 153.751 174.832 155.745 174.965 157.504 C 175.043 158.544 175.117 159.528 175.119 160.235 C 175.111 161.546 175.178 162.892 175.224 163.876 C 175.249 164.376 175.271 164.809 175.271 165.018 C 175.271 165.047 175.271 165.078 175.273 165.107 C 175.304 165.735 175.63 167.265 177.992 167.91 L 178.049 167.924 C 179.195 168.199 179.971 167.879 180.418 167.561 C 181.023 167.134 181.402 166.452 181.488 165.64 C 181.492 165.601 181.494 165.561 181.496 165.522 C 181.51 165.115 181.45 164.584 181.343 163.679 L 181.343 163.679 Z" />
    <path
      d="M 62.332 159.094 C 62.146 160.116 61.984 161.209 61.915 162.067 C 61.862 162.921 62.064 163.652 62.043 164.061 C 61.994 164.472 61.525 164.805 61.212 164.883 C 60.899 164.949 60.519 164.976 60.346 164.47 C 60.26 164.224 60.235 163.702 60.282 163.046 C 60.341 162.281 60.424 161.718 60.501 161.271 C 57.54 164.314 54.721 166.225 52.299 166.916 C 50.118 167.427 49.253 166.223 49.366 164.153 C 49.749 160.54 52.842 155.124 55.15 152.032 C 55.673 151.354 56.527 150.647 56.956 150.47 C 57.274 150.35 57.61 150.371 57.745 150.775 C 57.835 150.997 57.87 151.355 57.913 151.663 C 57.931 152.028 57.969 152.314 57.961 152.436 C 57.942 152.636 57.836 153.024 57.59 153.108 C 57.48 153.138 57.355 153.173 57.2 153.17 C 57.069 153.159 56.903 153.141 56.816 153.162 C 56.706 153.195 56.415 153.297 56.045 153.752 C 54.482 155.776 52.059 159.634 51.663 163.71 C 51.584 165.091 52.121 165.459 53.042 165.252 C 54.451 164.835 57.617 162.586 59.732 160.106 C 59.874 159.964 59.961 159.845 60.084 159.685 C 59.793 159.755 59.549 159.964 58.773 160.361 C 57.995 160.783 57.663 161.11 57.103 161.248 C 56.543 161.353 56.248 160.887 56.262 160.509 C 56.304 160.126 56.673 159.468 57.119 159.34 C 57.567 159.23 58.168 158.972 59.037 158.55 C 60.247 157.957 61.848 157.156 62.184 157.046 C 62.341 157.022 62.589 157.196 62.574 157.546 C 62.54 158.012 62.521 158.049 62.332 159.094 L 62.332 159.094 Z M 66.32 154.426 C 66.595 154.155 66.548 153.764 67.128 153.62 C 67.688 153.508 67.789 153.714 68.304 153.614 C 69.378 153.444 71.604 154.438 71.442 157.906 C 71.076 161.359 68.437 163.256 66.563 163.691 C 64.663 164.025 63.264 163.502 63.42 160.596 C 63.611 158.619 64.824 156.022 66.32 154.426 Z M 69.025 158.794 C 69.133 156.977 68.557 155.369 67.933 155.424 C 67.291 155.631 66.106 157.837 65.902 159.978 C 65.79 161.757 66.263 162.268 66.956 162.164 C 67.757 161.962 68.844 160.636 69.025 158.794 L 69.025 158.794 Z M 72.409 155.373 C 72.008 155.43 71.779 155.097 71.79 154.797 C 71.834 154.32 72.045 153.795 72.558 153.68 C 72.848 153.62 73.123 153.453 73.37 153.404 C 73.469 151.918 73.256 150.839 73.351 149.679 C 73.414 149.042 73.797 148.339 74.535 148.149 C 75.363 147.988 75.686 148.517 75.661 149.078 C 75.625 149.64 75.643 151.5 75.561 152.674 C 75.854 152.563 76.002 152.37 76.358 152.3 C 76.827 152.234 77.114 152.593 77.105 153.165 C 77.08 153.636 76.812 153.976 76.586 154.097 C 76.241 154.279 75.844 154.393 75.617 154.48 C 75.587 154.933 75.508 157.411 75.537 158.093 C 75.518 159.239 75.489 160.385 75.449 161.531 C 75.406 161.886 74.972 162.389 74.393 162.503 C 73.68 162.61 73.179 162.46 73.122 162.063 C 73.114 161.655 73.179 159.645 73.241 158.785 C 73.301 157.924 73.354 155.65 73.388 155.129 C 73.076 155.208 72.744 155.31 72.409 155.373 L 72.409 155.373 Z M 78.317 154.374 C 77.916 154.422 77.69 154.071 77.701 153.764 C 77.745 153.273 77.957 152.737 78.47 152.63 C 78.76 152.576 79.035 152.412 79.281 152.367 C 79.384 150.829 79.176 149.689 79.275 148.47 C 79.341 147.799 79.725 147.069 80.462 146.897 C 81.289 146.758 81.608 147.331 81.582 147.919 C 81.543 148.51 81.555 150.46 81.47 151.675 C 81.763 151.569 81.91 151.373 82.267 151.311 C 82.734 151.256 83.019 151.637 83.009 152.229 C 82.984 152.714 82.716 153.056 82.489 153.174 C 82.145 153.35 81.748 153.458 81.521 153.541 C 81.49 154.008 81.408 156.533 81.436 157.223 C 81.425 157.938 81.372 160.293 81.348 160.663 C 81.306 161.015 80.873 161.501 80.295 161.601 C 79.584 161.691 79.082 161.532 79.027 161.138 C 79.017 160.735 79.083 158.732 79.144 157.867 C 79.205 157 79.26 154.681 79.296 154.148 C 78.982 154.222 78.652 154.318 78.317 154.374 L 78.317 154.374 Z M 87.93 158.996 C 86.927 160.027 85.471 160.561 84.404 160.711 C 83.338 160.831 82.787 160.654 82.797 159.921 C 82.909 158.622 83.857 157.414 85.125 156.237 C 86.152 155.218 87.296 154.219 87.605 153.933 C 87.795 153.762 87.986 153.646 88.143 153.599 C 88.086 152.794 87.863 151.937 87.174 151.991 C 86.552 152.095 85.68 152.78 85.286 153.238 C 85.225 153.314 84.911 153.744 84.689 153.789 C 84.312 153.823 83.773 153.519 83.797 152.86 C 83.832 152.489 83.991 152.224 84.204 152.003 C 84.905 151.353 87.004 150.015 87.805 149.865 C 88.495 149.78 89.691 149.941 90.286 153.527 C 90.552 154.974 90.434 156.934 90.404 157.345 C 90.37 157.778 90.216 158.933 89.861 159.74 C 89.733 159.993 89.089 160.166 88.844 160.196 C 88.468 160.232 87.801 160.228 87.821 159.602 L 87.93 158.996 Z M 85.663 157.599 C 85.25 158.169 85.176 158.433 85.146 158.786 C 85.131 159.096 85.316 159.231 85.649 159.199 C 86.648 159.049 87.285 158.212 87.509 158.048 C 87.833 157.843 88.132 157.667 88.089 157.716 C 88.141 157.029 88.207 156.139 88.212 155.237 C 87.559 155.739 86.341 156.708 85.663 157.599 L 85.663 157.599 Z M 98.758 156.498 C 98.705 157.307 98.838 157.699 99.589 157.668 C 100.363 157.598 101.052 157.123 101.441 156.904 C 101.801 156.676 102.425 155.823 103.045 155.755 C 103.663 155.735 103.989 156.063 103.979 156.409 C 103.755 157.706 100.608 158.944 98.968 159.12 C 96.716 159.209 96.39 158.142 96.456 157.006 C 96.927 152.736 100.852 148.951 101.67 148.768 C 102.244 148.736 102.619 148.983 102.568 149.891 C 102.511 150.565 102.329 151.229 101.725 151.43 C 99.964 152.063 98.91 154.941 98.758 156.498 Z M 109.495 157.48 C 108.496 158.436 107.051 158.845 105.991 158.907 C 104.931 158.94 104.384 158.723 104.393 157.993 C 104.504 156.702 105.449 155.543 106.712 154.431 C 107.735 153.463 108.876 152.518 109.184 152.244 C 109.374 152.081 109.563 151.976 109.72 151.942 C 109.666 151.091 109.447 150.156 108.766 150.146 C 108.146 150.195 107.279 150.842 106.885 151.293 C 106.823 151.368 106.51 151.795 106.289 151.822 C 105.915 151.823 105.381 151.45 105.409 150.745 C 105.445 150.349 105.605 150.08 105.817 149.861 C 106.517 149.229 108.607 148 109.403 147.924 C 110.088 147.906 111.27 148.259 111.848 152.059 C 112.107 153.595 111.987 155.592 111.957 156.008 C 111.921 156.446 111.769 157.602 111.415 158.378 C 111.288 158.621 110.647 158.74 110.404 158.751 C 110.03 158.757 109.368 158.699 109.386 158.077 L 109.495 157.48 L 109.495 157.48 Z M 107.244 155.879 C 106.833 156.428 106.758 156.689 106.729 157.042 C 106.715 157.354 106.898 157.506 107.229 157.5 C 108.224 157.429 108.856 156.635 109.079 156.487 C 109.401 156.306 109.7 156.149 109.656 156.197 C 109.709 155.502 109.777 154.593 109.783 153.659 C 109.132 154.124 107.919 155.023 107.244 155.879 L 107.244 155.879 Z M 113.348 151.215 C 112.952 151.207 112.73 150.782 112.744 150.441 C 112.793 149.899 113.006 149.326 113.515 149.293 C 113.802 149.282 114.074 149.143 114.318 149.133 C 114.433 147.417 114.244 146.046 114.359 144.622 C 114.433 143.838 114.82 143.044 115.548 143.004 C 116.36 143.021 116.669 143.772 116.636 144.452 C 116.591 145.132 116.577 147.379 116.484 148.724 C 116.775 148.654 116.922 148.461 117.275 148.452 C 117.734 148.47 118.013 148.946 118 149.594 C 117.971 150.125 117.705 150.454 117.48 150.548 C 117.138 150.687 116.746 150.743 116.521 150.798 C 116.488 151.303 116.392 153.999 116.417 154.724 C 116.403 155.47 116.349 157.857 116.325 158.222 C 116.282 158.568 115.856 158.989 115.282 159.012 C 114.579 159.006 114.081 158.785 114.026 158.391 C 114.016 157.99 114.083 155.977 114.147 155.083 C 114.209 154.187 114.28 151.7 114.317 151.119 C 114.007 151.151 113.678 151.207 113.348 151.215 L 113.348 151.215 Z M 130.948 154.076 C 131.057 152.131 130.835 150.578 130.341 150.489 C 129.437 150.529 127.903 152.699 127.737 154.144 C 127.671 155.037 127.632 156.162 127.69 156.759 C 127.762 157.27 127.895 157.915 127.87 158.342 C 127.823 158.787 127.47 158.983 127.052 158.995 C 126.066 158.954 126.003 158.822 125.868 158.552 C 125.698 157.926 125.493 154.497 125.462 153.423 C 125.48 151.224 125.218 146.288 125.437 143.001 C 125.65 140.456 126.171 139.606 127.314 139.647 C 127.99 139.717 128.322 140.459 128.273 141.362 C 128.201 142.265 128.011 143.483 127.826 145.887 C 127.713 147.543 127.787 149.666 127.719 151.287 C 128.063 150.183 129.569 148.348 131.504 148.394 C 132.83 148.554 133.539 150.644 133.295 154.415 C 133.233 155.134 132.887 157.077 132.795 157.922 C 132.742 158.484 132.428 158.963 131.395 158.931 C 130.721 158.844 130.395 158.508 130.416 158.032 C 130.479 157.297 130.794 155.99 130.948 154.076 L 130.948 154.076 Z M 140.356 145.139 C 140.995 143.836 141.403 142.37 141.93 142.394 C 142.643 142.538 143.139 143.565 143.127 144.091 C 143.088 144.405 142.68 145.583 142.147 146.6 C 141.655 147.378 140.676 148.128 140.323 148.121 C 139.823 148.055 139.393 147.708 139.419 147.1 C 139.489 146.494 140.118 145.589 140.356 145.139 Z M 142.014 156.17 C 141.952 157.297 142.41 157.92 142.713 157.974 C 143.02 157.993 143.434 157.775 144.047 157.272 C 144.42 156.958 144.934 156.413 145.512 155.983 C 145.883 155.723 146.086 155.598 146.371 155.624 C 146.892 155.691 147.086 155.944 147.062 156.376 C 146.945 157.166 145.511 157.997 144.66 158.49 C 144.201 158.759 142.439 159.829 141.889 159.827 C 140.457 159.617 139.932 157.81 140.012 156.366 C 140.014 156.358 140.014 156.351 140.014 156.345 C 139.881 156.383 139.742 156.393 139.606 156.375 C 139.413 156.345 139.237 155.982 139.249 155.73 C 139.304 155.091 139.481 154.967 140.138 154.709 C 140.152 154.542 140.163 154.384 140.175 154.216 C 140.443 151.282 141.681 149.024 142.298 149.003 C 144.644 149.349 146.001 151.446 145.993 152.423 C 145.942 153.109 145.925 153.767 145.083 154.288 C 144.411 154.678 142.423 155.565 142.042 155.817 L 142.014 156.17 L 142.014 156.17 Z M 142.161 153.941 C 142.575 153.734 143.78 153.243 144.132 153.029 C 144.171 152.23 143.749 151.561 143.032 151.459 C 142.657 151.485 142.237 153.098 142.161 153.941 L 142.161 153.941 Z M 152.466 160.203 C 152.493 159.902 152.896 156.019 152.925 154.969 C 152.943 154.017 152.773 152.874 152.216 152.748 C 151.62 152.723 150.267 154.074 150.095 155.648 C 149.962 157.764 150.46 159.258 150.411 160.248 C 150.345 160.68 149.524 160.795 149.218 160.767 C 148.654 160.691 148.212 160.46 148.089 160.177 C 147.933 159.524 147.868 157.456 147.857 156.731 C 147.861 154.445 147.601 152.966 147.66 151.974 C 147.754 151.172 148.574 150.747 148.902 150.772 C 149.687 150.888 150.111 151.137 150.15 152.945 C 150.826 151.814 151.964 150.773 153.082 150.902 C 153.861 151.047 154.553 151.645 154.783 152.7 C 155.566 151.761 157.031 151.321 158.142 151.496 C 159.214 151.761 159.675 153.529 159.687 154.817 C 159.681 155.936 159.654 157.055 159.605 158.173 C 159.562 159.111 159.623 160.138 159.585 160.718 C 159.528 161.294 159.196 161.766 158.171 161.626 C 157.151 161.443 157.052 160.96 157.087 160.406 C 157.183 159.174 157.435 156.86 157.523 155.743 C 157.595 154.767 157.671 153.402 156.986 153.232 C 156.289 153.13 155.908 153.416 155.054 154.216 C 155.042 154.316 155.023 156.819 154.984 157.69 C 154.939 158.626 154.941 159.653 154.9 160.223 C 154.847 160.792 154.576 161.249 153.57 161.149 C 152.657 161.011 152.436 160.746 152.466 160.203 L 152.466 160.203 Z M 168.936 162.402 C 167.952 163.189 166.53 163.312 165.485 163.128 C 164.446 162.915 163.909 162.537 163.921 161.768 C 164.036 160.421 164.962 159.486 166.202 158.709 C 167.204 158.017 168.319 157.424 168.618 157.251 C 168.804 157.149 168.989 157.102 169.143 157.107 C 169.082 156.342 168.852 155.502 168.186 155.329 C 167.575 155.223 166.733 155.57 166.35 155.874 C 166.276 155.937 165.989 156.232 165.77 156.204 C 165.403 156.119 164.874 155.653 164.897 155.045 C 164.91 154.771 165.056 154.521 165.288 154.376 C 165.966 154.004 167.995 153.516 168.782 153.656 C 169.452 153.812 170.634 154.236 171.235 157.704 C 171.503 159.121 171.389 161.033 171.358 161.447 C 171.323 161.88 171.169 163.054 170.815 163.833 C 170.686 164.075 170.059 164.055 169.819 164.009 C 169.452 163.926 168.803 163.692 168.825 163.022 C 168.864 162.812 168.899 162.612 168.936 162.402 L 168.936 162.402 Z M 166.727 160.241 C 166.323 160.695 166.248 160.947 166.219 161.307 C 166.203 161.625 166.383 161.829 166.709 161.899 C 167.691 162.054 168.311 161.373 168.529 161.272 C 168.847 161.162 169.144 161.066 169.097 161.109 C 169.148 160.418 169.214 159.547 169.216 158.676 C 168.581 158.962 167.389 159.54 166.727 160.241 Z M 174.081 149.197 C 174.573 149.363 175.202 149.819 175.21 150.371 C 175.183 150.945 174.987 151.998 174.876 153.409 C 174.812 154.584 175.149 158.568 175.14 159.834 C 175.142 161.512 175.566 163.776 175.542 164.424 C 175.474 165.067 175.03 165.26 174.356 165.113 C 173.731 164.957 173.016 164.624 172.985 164.042 C 172.985 163.354 172.817 161.301 172.829 159.3 C 172.825 157.296 172.343 153.722 172.515 150.996 C 172.667 149.284 173.216 148.946 174.081 149.197 L 174.081 149.197 Z M 178.176 150.525 C 178.666 150.698 179.299 151.146 179.309 151.664 C 179.286 152.202 179.092 153.185 178.985 154.532 C 178.928 155.654 179.27 159.548 179.26 160.808 C 179.264 162.478 179.686 164.786 179.658 165.449 C 179.59 166.106 179.148 166.299 178.474 166.137 C 177.851 165.967 177.134 165.613 177.105 165.017 C 177.105 164.312 176.943 162.222 176.953 160.232 C 176.949 158.24 176.457 154.744 176.621 152.167 C 176.766 150.55 177.313 150.26 178.176 150.525 L 178.176 150.525 Z M 119.803 155.826 C 119.75 156.64 119.883 157.049 120.629 157.075 C 121.399 157.065 122.084 156.639 122.471 156.45 C 122.828 156.249 123.448 155.437 124.065 155.417 C 124.68 155.446 125.003 155.804 124.993 156.151 C 124.77 157.447 121.643 158.441 120.011 158.489 C 117.775 158.4 117.449 157.303 117.515 156.158 C 117.988 151.862 121.89 148.308 122.708 148.201 C 123.278 148.224 123.647 148.514 123.597 149.432 C 123.54 150.115 123.361 150.771 122.759 150.922 C 121.005 151.41 119.958 154.26 119.803 155.826 L 119.803 155.826 Z" />
    <path fill="#fff"
      d="M 188.426 164.539 C 188.266 164.352 188.156 164.16 187.973 164.012 C 188.28 163.569 188.416 163.148 188.463 162.515 C 188.483 162.244 188.524 161.786 188.572 161.256 C 188.672 160.162 188.806 158.666 188.892 157.258 C 188.972 155.938 189.126 154.753 189.216 154.046 C 189.259 153.717 189.286 153.518 189.296 153.373 C 189.419 151.648 188.202 150.254 186.466 150.129 C 185.737 150.076 184.962 150.356 184.339 150.896 C 183.718 151.433 183.333 152.146 183.282 152.852 C 183.259 153.178 183.261 153.87 183.266 155.064 C 183.272 156.215 183.278 157.647 183.241 158.187 C 183.192 158.866 183.143 160.14 183.104 161.164 C 183.089 161.626 183.069 162.089 183.045 162.552 C 183.01 163.03 183.065 163.379 183.346 163.799 C 182.557 164.242 182.037 165.045 181.953 165.946 C 181.877 166.704 182.084 167.392 182.553 167.936 C 183.157 168.641 184.114 169.02 185.477 169.093 C 187.229 169.187 189.086 168.446 189.247 166.847 C 189.317 166.149 189.009 165.218 188.426 164.539 L 188.426 164.539 Z" />
    <path
      d="M 186.356 151.687 C 187.29 151.754 187.795 152.46 187.737 153.26 C 187.712 153.615 187.448 155.249 187.333 157.162 C 187.206 159.252 186.964 161.558 186.903 162.401 C 186.86 163.002 186.581 163.502 185.891 163.488 C 184.912 163.468 184.616 162.794 184.653 162.283 C 184.688 161.794 184.723 159.387 184.801 158.298 C 184.877 157.232 184.797 153.608 184.842 152.963 C 184.887 152.364 185.667 151.638 186.356 151.687 L 186.356 151.687 Z M 185.721 164.652 C 186.785 164.719 187.653 166.049 187.537 166.647 C 187.445 167.123 186.553 167.453 185.621 167.404 C 184.355 167.336 183.695 166.925 183.775 166.116 C 183.835 165.524 184.979 164.605 185.721 164.652 Z" />
  </g>
</svg>